<?xml version="1.0" standalone="no"?>
<!DOCTYPE svg PUBLIC "-//W3C//DTD SVG 20010904//EN"
 "http://www.w3.org/TR/2001/REC-SVG-20010904/DTD/svg10.dtd">
<svg version="1.0" xmlns="http://www.w3.org/2000/svg"
 width="280.000000pt" height="280.000000pt" viewBox="0 0 280.000000 280.000000"
 preserveAspectRatio="xMidYMid meet">
<metadata>
Created by potrace 1.11, written by Peter Selinger 2001-2013
</metadata>
<g transform="translate(0.000000,280.000000) scale(0.100000,-0.100000)"
fill="#000000" stroke="none">
<path d="M0 1400 l0 -1400 1400 0 1400 0 0 1400 0 1400 -1400 0 -1400 0 0
-1400z m1634 1221 l80 -16 20 -94 c18 -82 24 -95 46 -104 84 -33 157 -71 221
-114 l74 -50 94 31 93 30 49 -54 c55 -61 159 -203 159 -217 0 -4 -22 -44 -49
-87 l-49 -80 19 -42 c24 -56 55 -163 70 -242 l12 -63 88 -45 89 -44 -7 -93
c-3 -50 -13 -128 -22 -171 l-16 -80 -93 -20 -93 -21 -32 -76 c-19 -41 -58
-113 -88 -160 l-55 -84 30 -94 31 -93 -45 -40 c-52 -46 -200 -158 -217 -165
-6 -3 -48 18 -93 45 l-82 49 -75 -28 c-75 -28 -161 -51 -236 -64 -35 -6 -40
-11 -82 -95 l-45 -90 -93 7 c-50 3 -128 13 -171 22 l-80 16 -20 94 c-18 82
-24 95 -46 104 -84 34 -157 71 -222 115 l-74 50 -93 -31 -93 -31 -49 55 c-54
60 -159 202 -159 216 0 4 22 44 49 87 l49 80 -19 42 c-24 56 -55 163 -70 242
l-12 63 -88 45 -89 44 7 93 c3 50 13 128 22 171 l16 80 93 20 93 21 32 76 c19
41 58 113 88 160 l55 84 -30 93 -31 94 55 49 c61 55 203 159 217 159 4 0 44
-22 87 -49 l79 -48 59 23 c73 29 145 49 226 65 l63 12 45 88 44 89 93 -7 c50
-3 128 -13 171 -22z"/>
<path d="M1220 2305 c-154 -30 -310 -110 -420 -217 -149 -144 -172 -176 -239
-338 -51 -124 -65 -200 -65 -350 0 -178 29 -290 120 -471 46 -93 235 -282 329
-330 169 -87 285 -117 455 -117 170 0 286 30 455 117 94 48 283 237 329 330
91 181 120 293 120 471 0 150 -14 226 -65 350 -67 162 -90 194 -239 338 -111
107 -266 187 -422 217 -86 16 -273 16 -358 0z m350 -38 c70 -17 233 -83 282
-114 21 -13 62 -46 90 -73 29 -27 59 -50 66 -50 6 0 12 -6 12 -12 0 -7 21 -35
45 -61 25 -26 45 -52 45 -56 0 -5 4 -11 8 -13 30 -12 116 -222 138 -336 18
-94 18 -210 0 -304 -22 -114 -108 -324 -138 -336 -4 -2 -8 -8 -8 -13 0 -4 -20
-30 -45 -56 -24 -26 -45 -54 -45 -60 0 -7 -6 -13 -12 -13 -7 0 -37 -23 -66
-50 -69 -66 -108 -89 -222 -135 -133 -54 -188 -65 -320 -65 -132 0 -187 11
-320 65 -114 46 -153 69 -222 135 -29 27 -59 50 -65 50 -7 0 -13 6 -13 13 0 6
-21 34 -45 60 -25 26 -45 52 -45 56 0 5 -4 11 -8 13 -30 12 -116 222 -138 336
-18 94 -18 210 0 304 22 114 108 324 138 336 4 2 8 8 8 13 0 4 20 30 45 56 24
26 45 54 45 61 0 6 6 12 13 12 6 0 36 23 65 50 28 27 69 60 90 73 46 30 210
96 277 113 67 17 276 17 345 1z"/>
<path d="M1240 2014 c-217 -57 -400 -241 -455 -459 -19 -76 -19 -234 0 -310
56 -220 240 -404 460 -460 76 -19 234 -19 310 0 220 56 404 240 460 460 19 76
19 234 0 310 -56 220 -240 404 -460 460 -75 19 -241 19 -315 -1z"/>
</g>
</svg>
